<svg xmlns="http://www.w3.org/2000/svg" viewBox="0 0 352.66109 196.82795">
  <g>
    <path d="M58.6899,22.78885H56.5087l-.7624-4.8291a.87864.87864,0,0,0-.2204-.4571c-.5238-.5718-12.8691-14.0353-16.5774-16.5572a4.138,4.138,0,0,0-3.8307-.7409c-2.0985.7603-2.9355,3.3543-3.0819,3.8664-.2242.7843-3.1321,5.028-6.6256,8.085-3.2847,2.8739-1.5066,6.9409-.1074,8.6898a.88148.88148,0,0,0,.3277.2539l5.5724,2.4921a.88061.88061,0,0,0,.8574-.0777c1.9852-1.3649,5.0743-8.3961,6.4951-11.8264l9.6762,18.5465a.87976.87976,0,0,0,.7802.473h9.678a.87978.87978,0,0,0,.8797-.8798v-6.1587A.87971.87971,0,0,0,58.6899,22.78885Z" style="fill: #5d4a44"/>
    <g>
      <path d="M286.4272,14.972a1.09179,1.09179,0,0,0-.91651-.7282H67.1503a1.09165,1.09165,0,0,0-.9165.7282L57.7353,32.981c-.5663,1.2002-.0275,2.9129.9165,2.9129H294.00929c.94391,0,1.4827-1.7127.9163-2.9129Z" style="fill: #5d4a44"/>
      <path d="M285.51069,14.24375a1.09179,1.09179,0,0,1,.91651.7282l8.49839,18.009c.5664,1.2002.02761,2.9129-.9163,2.9129H58.6518c-.944,0-1.4828-1.7127-.9165-2.9129l8.4985-18.009a1.09165,1.09165,0,0,1,.9165-.7282H285.51069m0-3.8207H67.1503a4.87255,4.87255,0,0,0-4.3717,2.9186l-8.4984,18.0087a6.44465,6.44465,0,0,0,.3411,6.0689,4.7909,4.7909,0,0,0,4.0305,2.2952H294.00929a4.79077,4.79077,0,0,0,4.0305-2.2954,6.44369,6.44369,0,0,0,.3409-6.0687l-8.4982-18.0088a4.87275,4.87275,0,0,0-4.3718-2.9185Z" style="fill: #f2ac4c"/>
    </g>
    <g>
      <rect x="303.16029" y="37.76445" width="23.2884" height="11.5031" style="fill: #f2ac4c"/>
      <path d="M322.76359,33.10295h7.318a1.5384,1.5384,0,0,1,1.5384,1.5384v17.7494a1.5384,1.5384,0,0,1-1.5384,1.5384h-7.3181a1.5384,1.5384,0,0,1-1.5384-1.5384V34.64145A1.5385,1.5385,0,0,1,322.76359,33.10295Z" style="fill: #5d4a44"/>
    </g>
    <path d="M336.1462,98.90415c-4.47281-10.142-12.38621-26.929-14.79461-37.0711s-11.0099-28.3279-11.0099-28.3279H42.3193s-8.6016,18.1858-11.01,28.3279-10.3216,26.9291-14.7945,37.0711S0,160.10645,0,177.59285s9.1176,19.2351,9.1176,19.2351H343.54349s9.1176-1.7487,9.1176-19.2351S340.61889,109.04625,336.1462,98.90415Z" style="fill: #3aa3a0"/>
    <path d="M206.88269,47.89235l-5.3616-14.0987a.39884.39884,0,0,0-.3504-.2885H151.4902a.39861.39861,0,0,0-.3502.2885l-5.3616,14.0987a.40849.40849,0,0,1-.326.2876l-45.4522,3.8065c-.4872.0408-.4955,1.0034-.009,1.058,14.482,1.6271,54.1066,5.9562,65.7789,5.9562h21.1207c11.6724,0,51.297-4.3291,65.77909-5.9562.4864-.0546.4782-1.0172-.009-1.058L207.20859,48.18A.40824.40824,0,0,1,206.88269,47.89235Z" style="fill: #5d4a44"/>
    <g>
      <path d="M318.96659,101.702h0a3.406,3.406,0,0,1-3.1518-2.1766l-2.7179-6.8379a3.40628,3.40628,0,0,0-3.1519-2.1767H42.7159a3.40645,3.40645,0,0,0-3.1518,2.1767l-2.7178,6.8379a3.40616,3.40616,0,0,1-3.1518,2.1766h0a3.40829,3.40829,0,0,0-3.0177,1.8713c-6.0176,11.5917-10.0205,52.5729-11.1414,65.3143a3.45835,3.45835,0,0,0,3.3918,3.8091H329.73369a3.45843,3.45843,0,0,0,3.392-3.8091c-1.121-12.7414-5.124-53.7226-11.1414-65.3143A3.40852,3.40852,0,0,0,318.96659,101.702Z" style="fill: #5d4a44"/>
      <g>
        <g>
          <g>
            <path d="M48.5383,92.49515H60.3364A2.14081,2.14081,0,0,1,62.4772,94.636v9.68569a2.1409,2.1409,0,0,1-2.1409,2.1409h-11.798a2.14091,2.14091,0,0,1-2.14091-2.14091V94.636A2.1409,2.1409,0,0,1,48.5383,92.49515Z" style="fill: #e2e2e2"/>
            <path d="M60.18,92.49515H48.6945a2.16858,2.16858,0,0,0-2.2971,1.9953v5.7933a16.20089,16.20089,0,0,0,8.0398,1.9386,16.2017,16.2017,0,0,0,8.04-1.9386v-5.7933A2.16861,2.16861,0,0,0,60.18,92.49515Z" style="fill: #fff"/>
          </g>
          <g>
            <path d="M69.8267,92.49515H81.6249a2.1408,2.1408,0,0,1,2.1408,2.1408v9.6857a2.1409,2.1409,0,0,1-2.1409,2.1409H69.8268a2.141,2.141,0,0,1-2.141-2.141V94.636A2.1409,2.1409,0,0,1,69.8267,92.49515Z" style="fill: #e2e2e2"/>
            <path d="M81.4684,92.49515H69.9829a2.16865,2.16865,0,0,0-2.2971,1.9953v5.7933a17.64133,17.64133,0,0,0,16.0799,0v-5.7933A2.16877,2.16877,0,0,0,81.4684,92.49515Z" style="fill: #fff"/>
          </g>
          <g>
            <path d="M91.1152,92.49515h11.798a2.1408,2.1408,0,0,1,2.1408,2.1408v9.6857a2.1409,2.1409,0,0,1-2.1409,2.1409h-11.798a2.14079,2.14079,0,0,1-2.14079-2.14079V94.636A2.1409,2.1409,0,0,1,91.1152,92.49515Z" style="fill: #e2e2e2"/>
            <path d="M102.7569,92.49515H91.2714a2.16858,2.16858,0,0,0-2.2971,1.9953v5.7933a17.64092,17.64092,0,0,0,16.0797,0v-5.7933A2.16865,2.16865,0,0,0,102.7569,92.49515Z" style="fill: #fff"/>
          </g>
          <g>
            <path d="M112.4034,92.49515h11.7981a2.1409,2.1409,0,0,1,2.1409,2.1409v9.6856a2.1409,2.1409,0,0,1-2.1409,2.1409H112.4034a2.1408,2.1408,0,0,1-2.1408-2.1408v-9.6858A2.1408,2.1408,0,0,1,112.4034,92.49515Z" style="fill: #e2e2e2"/>
            <path d="M124.0453,92.49515H112.5598a2.16874,2.16874,0,0,0-2.2972,1.9953v5.7933a17.64112,17.64112,0,0,0,16.0798,0v-5.7933A2.16858,2.16858,0,0,0,124.0453,92.49515Z" style="fill: #fff"/>
          </g>
          <g>
            <path d="M133.6919,92.49515H145.49a2.1409,2.1409,0,0,1,2.1409,2.1409v9.6855a2.141,2.141,0,0,1-2.141,2.141H133.6918a2.1408,2.1408,0,0,1-2.1408-2.1408V94.636A2.1409,2.1409,0,0,1,133.6919,92.49515Z" style="fill: #e2e2e2"/>
            <path d="M145.3338,92.49515H133.8483a2.16877,2.16877,0,0,0-2.2973,1.9953v5.7933a17.64133,17.64133,0,0,0,16.0799,0v-5.7933A2.16865,2.16865,0,0,0,145.3338,92.49515Z" style="fill: #fff"/>
          </g>
          <g>
            <rect x="152.8395" y="92.49515" width="16.0798" height="13.9674" rx="2.1409" style="fill: #e2e2e2"/>
            <path d="M166.6222,92.49515H155.1366a2.16871,2.16871,0,0,0-2.2971,1.9953v5.7933a17.64112,17.64112,0,0,0,16.0798,0v-5.7933A2.16858,2.16858,0,0,0,166.6222,92.49515Z" style="fill: #fff"/>
          </g>
          <g>
            <path d="M176.2688,92.49515h11.798a2.141,2.141,0,0,1,2.141,2.141v9.6854a2.141,2.141,0,0,1-2.141,2.141h-11.798a2.1409,2.1409,0,0,1-2.1409-2.1409V94.636A2.1409,2.1409,0,0,1,176.2688,92.49515Z" style="fill: #e2e2e2"/>
            <path d="M187.9107,92.49515H176.425a2.16871,2.16871,0,0,0-2.2971,1.9953v5.7933a17.64133,17.64133,0,0,0,16.0799,0v-5.7933A2.16865,2.16865,0,0,0,187.9107,92.49515Z" style="fill: #fff"/>
          </g>
          <g>
            <path d="M197.5573,92.49515h11.798a2.1409,2.1409,0,0,1,2.1409,2.1409v9.6856a2.1409,2.1409,0,0,1-2.1409,2.1409h-11.798a2.14091,2.14091,0,0,1-2.14091-2.14091V94.636A2.1409,2.1409,0,0,1,197.5573,92.49515Z" style="fill: #e2e2e2"/>
            <path d="M209.19909,92.49515H197.7135a2.16871,2.16871,0,0,0-2.2971,1.9953v5.7933a17.64112,17.64112,0,0,0,16.0798,0v-5.7933A2.16859,2.16859,0,0,0,209.19909,92.49515Z" style="fill: #fff"/>
          </g>
          <g>
            <path d="M218.84569,92.49515h11.798a2.141,2.141,0,0,1,2.141,2.141v9.6854a2.141,2.141,0,0,1-2.141,2.141h-11.798a2.1409,2.1409,0,0,1-2.1409-2.1409V94.636A2.1409,2.1409,0,0,1,218.84569,92.49515Z" style="fill: #e2e2e2"/>
            <path d="M230.48759,92.49515h-11.4857a2.16871,2.16871,0,0,0-2.2971,1.9953v5.7933a17.64133,17.64133,0,0,0,16.0799,0v-5.7933A2.16865,2.16865,0,0,0,230.48759,92.49515Z" style="fill: #fff"/>
          </g>
          <g>
            <path d="M240.13419,92.49515h11.798a2.14091,2.14091,0,0,1,2.14091,2.14091v9.68558a2.14091,2.14091,0,0,1-2.14091,2.14091h-11.798a2.14089,2.14089,0,0,1-2.14089-2.14089V94.636A2.1409,2.1409,0,0,1,240.13419,92.49515Z" style="fill: #e2e2e2"/>
            <path d="M251.776,92.49515h-11.4856a2.16871,2.16871,0,0,0-2.2971,1.9953v5.7933a17.64112,17.64112,0,0,0,16.0798,0v-5.7933A2.16858,2.16858,0,0,0,251.776,92.49515Z" style="fill: #fff"/>
          </g>
          <g>
            <path d="M261.42259,92.49515h11.798a2.141,2.141,0,0,1,2.141,2.141v9.6854a2.141,2.141,0,0,1-2.141,2.141h-11.7979a2.141,2.141,0,0,1-2.141-2.141V94.636A2.1409,2.1409,0,0,1,261.42259,92.49515Z" style="fill: #e2e2e2"/>
            <path d="M273.06449,92.49515h-11.4857a2.16865,2.16865,0,0,0-2.2971,1.9953v5.7933a17.64133,17.64133,0,0,0,16.0799,0v-5.7933A2.16865,2.16865,0,0,0,273.06449,92.49515Z" style="fill: #fff"/>
          </g>
          <g>
            <path d="M282.7111,92.49515h11.798A2.14089,2.14089,0,0,1,296.65,94.636v9.68561a2.1409,2.1409,0,0,1-2.1409,2.1409h-11.798a2.1409,2.1409,0,0,1-2.1409-2.1409V94.636A2.1409,2.1409,0,0,1,282.7111,92.49515Z" style="fill: #e2e2e2"/>
            <path d="M294.35289,92.49515h-11.4856a2.16857,2.16857,0,0,0-2.29709,1.9953v5.7933a17.6411,17.6411,0,0,0,16.07979,0v-5.7933A2.16858,2.16858,0,0,0,294.35289,92.49515Z" style="fill: #fff"/>
          </g>
        </g>
        <g>
          <g>
            <path d="M48.5384,149.33155h11.798a2.14081,2.14081,0,0,1,2.14081,2.14081v9.68559a2.1408,2.1408,0,0,1-2.1408,2.1408H48.53831a2.14091,2.14091,0,0,1-2.14091-2.14091v-9.68529A2.141,2.141,0,0,1,48.5384,149.33155Z" style="fill: #e2e2e2"/>
            <path d="M60.18,149.33155H48.6945a2.16851,2.16851,0,0,0-2.2971,1.9952V157.12a16.19874,16.19874,0,0,0,8.0398,1.9388,16.19955,16.19955,0,0,0,8.04-1.9388v-5.7932A2.16854,2.16854,0,0,0,60.18,149.33155Z" style="fill: #fff"/>
          </g>
          <g>
            <path d="M69.8268,149.33155H81.6249a2.1408,2.1408,0,0,1,2.1408,2.1408v9.6856a2.1408,2.1408,0,0,1-2.1408,2.1408H69.8268a2.141,2.141,0,0,1-2.141-2.141v-9.6852A2.141,2.141,0,0,1,69.8268,149.33155Z" style="fill: #e2e2e2"/>
            <path d="M81.4684,149.33155H69.9829a2.16857,2.16857,0,0,0-2.2971,1.9952V157.12a17.63971,17.63971,0,0,0,16.0799,0v-5.7932A2.1687,2.1687,0,0,0,81.4684,149.33155Z" style="fill: #fff"/>
          </g>
          <g>
            <path d="M91.11509,149.33155H102.9132a2.1408,2.1408,0,0,1,2.1408,2.1408v9.6856a2.1408,2.1408,0,0,1-2.1408,2.1408H91.1151a2.1408,2.1408,0,0,1-2.1408-2.1408v-9.68561A2.14079,2.14079,0,0,1,91.11509,149.33155Z" style="fill: #e2e2e2"/>
            <path d="M102.7569,149.33155H91.2714a2.16851,2.16851,0,0,0-2.2971,1.9952V157.12a17.6393,17.6393,0,0,0,16.0797,0v-5.7932A2.16857,2.16857,0,0,0,102.7569,149.33155Z" style="fill: #fff"/>
          </g>
          <g>
            <path d="M112.4036,149.33155h11.7978a2.141,2.141,0,0,1,2.141,2.141v9.6854a2.1408,2.1408,0,0,1-2.1408,2.1408H112.4034a2.1408,2.1408,0,0,1-2.1408-2.1408v-9.6854A2.141,2.141,0,0,1,112.4036,149.33155Z" style="fill: #e2e2e2"/>
            <path d="M124.0453,149.33155H112.5598a2.16867,2.16867,0,0,0-2.2972,1.9952V157.12a17.6395,17.6395,0,0,0,16.0798,0v-5.7932A2.16851,2.16851,0,0,0,124.0453,149.33155Z" style="fill: #fff"/>
          </g>
          <g>
            <path d="M133.6918,149.33155h11.7981a2.141,2.141,0,0,1,2.141,2.141v9.6854a2.1408,2.1408,0,0,1-2.1408,2.1408H133.6918a2.1408,2.1408,0,0,1-2.1408-2.1408v-9.6856A2.1408,2.1408,0,0,1,133.6918,149.33155Z" style="fill: #e2e2e2"/>
            <path d="M145.3338,149.33155H133.8483a2.1687,2.1687,0,0,0-2.2973,1.9952V157.12a17.63971,17.63971,0,0,0,16.0799,0v-5.7932A2.16857,2.16857,0,0,0,145.3338,149.33155Z" style="fill: #fff"/>
          </g>
          <g>
            <path d="M154.9805,149.33155h11.7978a2.141,2.141,0,0,1,2.141,2.141v9.6854a2.1408,2.1408,0,0,1-2.1408,2.1408H154.9804a2.1409,2.1409,0,0,1-2.1409-2.1409v-9.6853A2.141,2.141,0,0,1,154.9805,149.33155Z" style="fill: #e2e2e2"/>
            <path d="M166.6222,149.33155H155.1366a2.16863,2.16863,0,0,0-2.2971,1.9952V157.12a17.6395,17.6395,0,0,0,16.0798,0v-5.7932A2.16851,2.16851,0,0,0,166.6222,149.33155Z" style="fill: #fff"/>
          </g>
          <g>
            <path d="M176.2689,149.33155h11.7979a2.141,2.141,0,0,1,2.141,2.141v9.6854a2.1408,2.1408,0,0,1-2.1408,2.1408H176.2689a2.141,2.141,0,0,1-2.141-2.141v-9.6852A2.141,2.141,0,0,1,176.2689,149.33155Z" style="fill: #e2e2e2"/>
            <path d="M187.9107,149.33155H176.425a2.16863,2.16863,0,0,0-2.2971,1.9952V157.12a17.63971,17.63971,0,0,0,16.0799,0v-5.7932A2.16857,2.16857,0,0,0,187.9107,149.33155Z" style="fill: #fff"/>
          </g>
          <g>
            <path d="M197.5574,149.33155H209.3552a2.141,2.141,0,0,1,2.141,2.141v9.6854a2.1408,2.1408,0,0,1-2.1408,2.1408h-11.7981a2.14091,2.14091,0,0,1-2.14091-2.14091v-9.68529A2.141,2.141,0,0,1,197.5574,149.33155Z" style="fill: #e2e2e2"/>
            <path d="M209.19909,149.33155H197.7135a2.16863,2.16863,0,0,0-2.2971,1.9952V157.12a17.6395,17.6395,0,0,0,16.0798,0v-5.7932A2.16852,2.16852,0,0,0,209.19909,149.33155Z" style="fill: #fff"/>
          </g>
          <g>
            <path d="M218.84579,149.33155h11.7979a2.141,2.141,0,0,1,2.141,2.141v9.6854a2.1408,2.1408,0,0,1-2.1408,2.1408h-11.7981a2.141,2.141,0,0,1-2.141-2.141v-9.6852A2.141,2.141,0,0,1,218.84579,149.33155Z" style="fill: #e2e2e2"/>
            <path d="M230.48759,149.33155h-11.4857a2.16863,2.16863,0,0,0-2.2971,1.9952V157.12a17.63971,17.63971,0,0,0,16.0799,0v-5.7932A2.16857,2.16857,0,0,0,230.48759,149.33155Z" style="fill: #fff"/>
          </g>
          <g>
            <path d="M240.13418,149.33155h11.79791a2.141,2.141,0,0,1,2.141,2.141v9.6854a2.1408,2.1408,0,0,1-2.1408,2.1408H240.13418a2.14089,2.14089,0,0,1-2.14089-2.14089v-9.68542A2.14089,2.14089,0,0,1,240.13418,149.33155Z" style="fill: #e2e2e2"/>
            <path d="M251.776,149.33155h-11.4856a2.16863,2.16863,0,0,0-2.2971,1.9952V157.12a17.6395,17.6395,0,0,0,16.0798,0v-5.7932A2.16851,2.16851,0,0,0,251.776,149.33155Z" style="fill: #fff"/>
          </g>
          <g>
            <path d="M261.42269,149.33155h11.7979a2.141,2.141,0,0,1,2.141,2.141v9.6854a2.1408,2.1408,0,0,1-2.1408,2.1408h-11.7981a2.141,2.141,0,0,1-2.141-2.141v-9.6852A2.141,2.141,0,0,1,261.42269,149.33155Z" style="fill: #e2e2e2"/>
            <path d="M273.06449,149.33155h-11.4857a2.16857,2.16857,0,0,0-2.2971,1.9952V157.12a17.63971,17.63971,0,0,0,16.0799,0v-5.7932A2.16857,2.16857,0,0,0,273.06449,149.33155Z" style="fill: #fff"/>
          </g>
          <g>
            <path d="M282.7112,149.33155h11.7979a2.14089,2.14089,0,0,1,2.14089,2.14089v9.68551a2.1408,2.1408,0,0,1-2.1408,2.1408H282.7111a2.1409,2.1409,0,0,1-2.1409-2.1409v-9.6853A2.141,2.141,0,0,1,282.7112,149.33155Z" style="fill: #e2e2e2"/>
            <path d="M294.35289,149.33155h-11.4856a2.1685,2.1685,0,0,0-2.29709,1.9952V157.12a17.63948,17.63948,0,0,0,16.07979,0v-5.7932A2.16851,2.16851,0,0,0,294.35289,149.33155Z" style="fill: #fff"/>
          </g>
        </g>
        <g>
          <g>
            <path d="M78.7023,130.386H90.5002a2.141,2.141,0,0,1,2.141,2.141v9.6855a2.1408,2.1408,0,0,1-2.1408,2.1408H78.7023a2.141,2.141,0,0,1-2.141-2.141V132.527A2.141,2.141,0,0,1,78.7023,130.386Z" style="fill: #e2e2e2"/>
            <path d="M90.3441,130.38605H78.8584a2.16871,2.16871,0,0,0-2.2971,1.9953v5.7932a17.64052,17.64052,0,0,0,16.0799,0v-5.7932A2.16865,2.16865,0,0,0,90.3441,130.38605Z" style="fill: #fff"/>
          </g>
          <g>
            <path d="M99.9908,130.386h11.7979a2.1409,2.1409,0,0,1,2.1409,2.1409v9.6856a2.1408,2.1408,0,0,1-2.1408,2.1408H99.9907a2.1409,2.1409,0,0,1-2.1409-2.1409V132.527A2.141,2.141,0,0,1,99.9908,130.386Z" style="fill: #e2e2e2"/>
            <path d="M111.6325,130.38605H100.1469a2.16871,2.16871,0,0,0-2.2971,1.9953v5.7932a17.64031,17.64031,0,0,0,16.0798,0v-5.7932A2.16858,2.16858,0,0,0,111.6325,130.38605Z" style="fill: #fff"/>
          </g>
          <g>
            <path d="M121.2792,130.386H133.0771a2.141,2.141,0,0,1,2.141,2.141v9.6853a2.141,2.141,0,0,1-2.141,2.141H121.279a2.1408,2.1408,0,0,1-2.1408-2.1408V132.527A2.141,2.141,0,0,1,121.2792,130.386Z" style="fill: #e2e2e2"/>
            <path d="M132.921,130.38605H121.4353a2.16865,2.16865,0,0,0-2.2971,1.9953v5.7932a17.64052,17.64052,0,0,0,16.0799,0v-5.7932A2.16865,2.16865,0,0,0,132.921,130.38605Z" style="fill: #fff"/>
          </g>
          <g>
            <rect x="140.4267" y="130.38605" width="16.0798" height="13.9673" rx="2.1409" style="fill: #e2e2e2"/>
            <path d="M154.2094,130.38605H142.7238a2.16858,2.16858,0,0,0-2.2971,1.9953v5.7932a17.64031,17.64031,0,0,0,16.0798,0v-5.7932A2.16858,2.16858,0,0,0,154.2094,130.38605Z" style="fill: #fff"/>
          </g>
          <g>
            <path d="M163.8561,130.386H175.654a2.141,2.141,0,0,1,2.141,2.141v9.6855a2.1408,2.1408,0,0,1-2.1408,2.1408H163.8559a2.1408,2.1408,0,0,1-2.1408-2.1408V132.527A2.141,2.141,0,0,1,163.8561,130.386Z" style="fill: #e2e2e2"/>
            <path d="M175.4979,130.38605H164.0122a2.16865,2.16865,0,0,0-2.2971,1.9953v5.7932a17.64052,17.64052,0,0,0,16.0799,0v-5.7932A2.16865,2.16865,0,0,0,175.4979,130.38605Z" style="fill: #fff"/>
          </g>
          <g>
            <path d="M185.1446,130.386h11.7978a2.141,2.141,0,0,1,2.141,2.141v9.6855a2.1408,2.1408,0,0,1-2.1408,2.1408H185.1445a2.1409,2.1409,0,0,1-2.1409-2.1409V132.527A2.141,2.141,0,0,1,185.1446,130.386Z" style="fill: #e2e2e2"/>
            <path d="M196.7862,130.38605H185.3007a2.16858,2.16858,0,0,0-2.2971,1.9953v5.7932a17.64029,17.64029,0,0,0,16.07979,0v-5.7932A2.16861,2.16861,0,0,0,196.7862,130.38605Z" style="fill: #fff"/>
          </g>
          <g>
            <path d="M206.433,130.386h11.7979a2.141,2.141,0,0,1,2.141,2.141v9.6855a2.1408,2.1408,0,0,1-2.1408,2.1408h-11.7983a2.1408,2.1408,0,0,1-2.1408-2.1408V132.527A2.141,2.141,0,0,1,206.433,130.386Z" style="fill: #e2e2e2"/>
            <path d="M218.07459,130.38605h-11.4855a2.16865,2.16865,0,0,0-2.2971,1.9953v5.7932a17.64052,17.64052,0,0,0,16.0799,0v-5.7932A2.16877,2.16877,0,0,0,218.07459,130.38605Z" style="fill: #fff"/>
          </g>
          <g>
            <path d="M227.72131,130.386h11.7979a2.141,2.141,0,0,1,2.141,2.141v9.6855a2.1408,2.1408,0,0,1-2.1408,2.1408H227.72129a2.1408,2.1408,0,0,1-2.1408-2.1408v-9.68569A2.14081,2.14081,0,0,1,227.72131,130.386Z" style="fill: #e2e2e2"/>
            <path d="M239.36309,130.38605h-11.4855a2.16858,2.16858,0,0,0-2.2971,1.9953v5.7932a17.64013,17.64013,0,0,0,16.07971,0v-5.7932A2.16866,2.16866,0,0,0,239.36309,130.38605Z" style="fill: #fff"/>
          </g>
          <g>
            <path d="M249.00979,130.386h11.7979a2.1409,2.1409,0,0,1,2.1409,2.1409v9.6855a2.1409,2.1409,0,0,1-2.1409,2.1409h-11.7981a2.1408,2.1408,0,0,1-2.1408-2.1408V132.527A2.141,2.141,0,0,1,249.00979,130.386Z" style="fill: #e2e2e2"/>
            <path d="M260.65149,130.38605H249.166a2.16874,2.16874,0,0,0-2.2972,1.9953v5.7932a17.64031,17.64031,0,0,0,16.0798,0v-5.7932A2.16858,2.16858,0,0,0,260.65149,130.38605Z" style="fill: #fff"/>
          </g>
          <g>
            <path d="M270.2982,130.386h11.79789a2.141,2.141,0,0,1,2.141,2.141v9.6853a2.141,2.141,0,0,1-2.141,2.141H270.298a2.1408,2.1408,0,0,1-2.1408-2.1408V132.527A2.141,2.141,0,0,1,270.2982,130.386Z" style="fill: #e2e2e2"/>
            <path d="M281.94,130.38605h-11.4855a2.16876,2.16876,0,0,0-2.29729,1.9953v5.7932a17.6405,17.6405,0,0,0,16.07989,0v-5.7932A2.16865,2.16865,0,0,0,281.94,130.38605Z" style="fill: #fff"/>
          </g>
          <g>
            <path d="M291.58669,130.386h11.7979a2.1409,2.1409,0,0,1,2.1409,2.1409v9.6855a2.1409,2.1409,0,0,1-2.1409,2.1409h-11.798a2.1409,2.1409,0,0,1-2.1409-2.1409V132.527A2.141,2.141,0,0,1,291.58669,130.386Z" style="fill: #e2e2e2"/>
            <path d="M303.22839,130.38605h-11.4856a2.16871,2.16871,0,0,0-2.2971,1.9953v5.7932a17.64031,17.64031,0,0,0,16.0798,0v-5.7932A2.16858,2.16858,0,0,0,303.22839,130.38605Z" style="fill: #fff"/>
          </g>
          <g>
            <path d="M312.87509,130.386H324.673a2.141,2.141,0,0,1,2.141,2.141v9.6855a2.1408,2.1408,0,0,1-2.1408,2.1408h-11.7983a2.1408,2.1408,0,0,1-2.1408-2.1408V132.527A2.141,2.141,0,0,1,312.87509,130.386Z" style="fill: #e2e2e2"/>
            <path d="M324.51689,130.38605H313.0312a2.16871,2.16871,0,0,0-2.29711,1.9953v5.7932a17.64052,17.64052,0,0,0,16.0799,0v-5.7932A2.16865,2.16865,0,0,0,324.51689,130.38605Z" style="fill: #fff"/>
          </g>
        </g>
        <g>
          <g>
            <path d="M32.88,111.44065H44.6781a2.14089,2.14089,0,0,1,2.14089,2.14089v9.68541a2.1409,2.1409,0,0,1-2.1409,2.1409H32.88a2.14079,2.14079,0,0,1-2.14079-2.14079v-9.68561A2.1408,2.1408,0,0,1,32.88,111.44065Z" style="fill: #e2e2e2"/>
            <path d="M44.5219,111.44065H33.0364a2.16867,2.16867,0,0,0-2.2972,1.9952v5.7934a16.20171,16.20171,0,0,0,8.04,1.9385,16.20091,16.20091,0,0,0,8.0398-1.9385v-5.7934A2.16851,2.16851,0,0,0,44.5219,111.44065Z" style="fill: #fff"/>
          </g>
          <g>
            <path d="M55.0041,111.44065H66.80219a2.14091,2.14091,0,0,1,2.14091,2.14091v9.68539a2.1409,2.1409,0,0,1-2.1409,2.1409H55.0042a2.1409,2.1409,0,0,1-2.1409-2.1409v-9.6855A2.1408,2.1408,0,0,1,55.0041,111.44065Z" style="fill: #e2e2e2"/>
            <path d="M66.646,111.44065H55.1604a2.16863,2.16863,0,0,0-2.2971,1.9952v5.7934a16.20171,16.20171,0,0,0,8.04,1.9385,16.20091,16.20091,0,0,0,8.0398-1.9385v-5.7934A2.16851,2.16851,0,0,0,66.646,111.44065Z" style="fill: #fff"/>
          </g>
          <g>
            <path d="M77.1282,111.44065H88.9263a2.1409,2.1409,0,0,1,2.1409,2.1409v9.6854a2.1409,2.1409,0,0,1-2.1409,2.1409h-11.798a2.14091,2.14091,0,0,1-2.14091-2.14091v-9.68549A2.1408,2.1408,0,0,1,77.1282,111.44065Z" style="fill: #e2e2e2"/>
            <path d="M88.7701,111.44065H77.2845a2.16863,2.16863,0,0,0-2.2971,1.9952v5.7934a17.64193,17.64193,0,0,0,16.0798,0v-5.7934A2.16851,2.16851,0,0,0,88.7701,111.44065Z" style="fill: #fff"/>
          </g>
          <g>
            <path d="M99.2523,111.44065h11.7981a2.1409,2.1409,0,0,1,2.1409,2.1409v9.6854a2.1409,2.1409,0,0,1-2.1409,2.1409H99.2524a2.1409,2.1409,0,0,1-2.1409-2.1409v-9.6855A2.1408,2.1408,0,0,1,99.2523,111.44065Z" style="fill: #e2e2e2"/>
            <path d="M110.8942,111.44065H99.4086a2.16863,2.16863,0,0,0-2.2971,1.9952v5.7934a17.64193,17.64193,0,0,0,16.0798,0v-5.7934A2.16851,2.16851,0,0,0,110.8942,111.44065Z" style="fill: #fff"/>
          </g>
          <g>
            <path d="M121.3764,111.44065h11.7982a2.1408,2.1408,0,0,1,2.1408,2.1408v9.6855a2.1409,2.1409,0,0,1-2.1409,2.1409h-11.798a2.1409,2.1409,0,0,1-2.1409-2.1409v-9.6855A2.1408,2.1408,0,0,1,121.3764,111.44065Z" style="fill: #e2e2e2"/>
            <path d="M133.0183,111.44065H121.5327a2.16863,2.16863,0,0,0-2.2971,1.9952v5.7934a17.64193,17.64193,0,0,0,16.0798,0v-5.7934A2.16851,2.16851,0,0,0,133.0183,111.44065Z" style="fill: #fff"/>
          </g>
          <g>
            <path d="M143.5005,111.44065h11.7981a2.1409,2.1409,0,0,1,2.1409,2.1409v9.6854a2.1409,2.1409,0,0,1-2.1409,2.1409h-11.798a2.1409,2.1409,0,0,1-2.1409-2.1409v-9.6855A2.1408,2.1408,0,0,1,143.5005,111.44065Z" style="fill: #e2e2e2"/>
            <path d="M155.1424,111.44065H143.6568a2.16851,2.16851,0,0,0-2.2971,1.9952v5.7934a17.64193,17.64193,0,0,0,16.0798,0v-5.7934A2.16851,2.16851,0,0,0,155.1424,111.44065Z" style="fill: #fff"/>
          </g>
          <g>
            <rect x="163.4838" y="111.44065" width="16.0798" height="13.9672" rx="2.1409" style="fill: #e2e2e2"/>
            <path d="M177.2665,111.44065H165.7809a2.16851,2.16851,0,0,0-2.2971,1.9952v5.7934a17.64193,17.64193,0,0,0,16.0798,0v-5.7934A2.16851,2.16851,0,0,0,177.2665,111.44065Z" style="fill: #fff"/>
          </g>
          <g>
            <path d="M187.7488,111.44065h11.7981a2.1408,2.1408,0,0,1,2.1408,2.1408v9.6855a2.1409,2.1409,0,0,1-2.1409,2.1409h-11.798a2.1409,2.1409,0,0,1-2.1409-2.1409v-9.6854A2.1409,2.1409,0,0,1,187.7488,111.44065Z" style="fill: #e2e2e2"/>
            <path d="M199.39049,111.44065H187.905a2.16851,2.16851,0,0,0-2.2971,1.9952v5.7934a17.64191,17.64191,0,0,0,16.07979,0v-5.7934A2.16854,2.16854,0,0,0,199.39049,111.44065Z" style="fill: #fff"/>
          </g>
          <g>
            <path d="M209.87279,111.44065h11.7981a2.1408,2.1408,0,0,1,2.1408,2.1408v9.6855a2.1409,2.1409,0,0,1-2.1409,2.1409h-11.7979a2.1409,2.1409,0,0,1-2.1409-2.1409v-9.6855A2.1408,2.1408,0,0,1,209.87279,111.44065Z" style="fill: #e2e2e2"/>
            <path d="M221.51459,111.44065h-11.4855a2.16851,2.16851,0,0,0-2.2971,1.9952v5.7934a17.64173,17.64173,0,0,0,16.0797,0v-5.7934A2.16857,2.16857,0,0,0,221.51459,111.44065Z" style="fill: #fff"/>
          </g>
          <g>
            <path d="M231.99669,111.44065h11.7981a2.141,2.141,0,0,1,2.141,2.141v9.6853a2.1409,2.1409,0,0,1-2.1409,2.1409h-11.7981a2.1409,2.1409,0,0,1-2.1409-2.1409v-9.6855A2.1408,2.1408,0,0,1,231.99669,111.44065Z" style="fill: #e2e2e2"/>
            <path d="M243.63869,111.44065H232.1532a2.1687,2.1687,0,0,0-2.29731,1.9952v5.7934a17.64214,17.64214,0,0,0,16.0799,0v-5.7934A2.16857,2.16857,0,0,0,243.63869,111.44065Z" style="fill: #fff"/>
          </g>
          <g>
            <path d="M254.121,111.44065h11.7979a2.141,2.141,0,0,1,2.141,2.141v9.6853a2.1409,2.1409,0,0,1-2.1409,2.1409H254.121a2.141,2.141,0,0,1-2.141-2.141v-9.6852A2.141,2.141,0,0,1,254.121,111.44065Z" style="fill: #e2e2e2"/>
            <path d="M265.76279,111.44065h-11.4857a2.16863,2.16863,0,0,0-2.2971,1.9952v5.7934a17.64214,17.64214,0,0,0,16.0799,0v-5.7934A2.16856,2.16856,0,0,0,265.76279,111.44065Z" style="fill: #fff"/>
          </g>
          <g>
            <path d="M276.24489,111.44065H288.043a2.141,2.141,0,0,1,2.141,2.141v9.6853a2.1409,2.1409,0,0,1-2.1409,2.1409h-11.798a2.141,2.141,0,0,1-2.141-2.141v-9.6854A2.1408,2.1408,0,0,1,276.24489,111.44065Z" style="fill: #e2e2e2"/>
            <path d="M287.88689,111.44065H276.4012a2.16864,2.16864,0,0,0-2.29711,1.9952v5.7934a17.64214,17.64214,0,0,0,16.0799,0v-5.7934A2.16857,2.16857,0,0,0,287.88689,111.44065Z" style="fill: #fff"/>
          </g>
          <g>
            <path d="M298.369,111.44065h11.79829a2.1408,2.1408,0,0,1,2.1408,2.1408v9.6855a2.1409,2.1409,0,0,1-2.1409,2.1409h-11.798a2.141,2.141,0,0,1-2.141-2.141v-9.6854A2.1408,2.1408,0,0,1,298.369,111.44065Z" style="fill: #e2e2e2"/>
            <path d="M310.011,111.44065h-11.4857a2.16862,2.16862,0,0,0-2.29709,1.9952v5.7934a17.64212,17.64212,0,0,0,16.07989,0v-5.7934A2.16857,2.16857,0,0,0,310.011,111.44065Z" style="fill: #fff"/>
          </g>
        </g>
      </g>
    </g>
    <g>
      <path d="M94.3601,168.15025H258.30079a2.177,2.177,0,0,1,2.177,2.177v9.9848a2.1769,2.1769,0,0,1-2.1769,2.1769H94.3601a2.1769,2.1769,0,0,1-2.1769-2.1769v-9.9849A2.1769,2.1769,0,0,1,94.3601,168.15025Z" style="fill: #fff"/>
      <path d="M92.1832,175.31965v5.071a2.18919,2.18919,0,0,0,2.2584,2.0983H258.21939a2.189,2.189,0,0,0,2.2583-2.0983v-5.071Z" style="fill: #e2e2e2"/>
    </g>
    <g>
      <rect x="176.33036" y="-63.54947" width="0.00021" height="271.70704" transform="translate(32.80238 197.68346) rotate(-63.43495)" style="fill: #5d4a44"/>
      <polygon points="310.061 68.042 176.33 68.042 42.6 68.042 40.477 72.304 312.184 72.304 310.061 68.042" style="fill: #5d4a44"/>
      <polygon points="39.264 74.74 40.441 76.566 312.22 76.566 313.397 74.74 312.184 72.304 40.477 72.304 39.264 74.74" style="fill: #f2ac4c"/>
      <polygon points="309.472 80.829 312.22 76.566 40.441 76.566 43.189 80.829 309.472 80.829" style="fill: #e3533f"/>
      <polygon points="43.189 80.829 45.936 85.091 176.33 85.091 306.725 85.091 309.472 80.829 43.189 80.829" style="fill: #f2edd8"/>
    </g>
  </g>
</svg>
